<?xml version="1.0" encoding="UTF-8"?>
<svg xmlns="http://www.w3.org/2000/svg" viewBox="0 0 512 512">
  <defs>
    <style>
      .cls-1 {
        fill: #fb5cf6;
        opacity: .4;
      }

      .cls-1, .cls-2 {
        isolation: isolate;
      }

      .cls-3 {
        fill: #fff;
      }

      .cls-2 {
        fill: #0a1c21;
      }

      .cls-4 {
        font-family: FederationWide, FederationWide;
        font-size: 110px;
      }

      .cls-4, .cls-5 {
        fill: #38bdf8;
      }
    </style>
  </defs>
  <rect class="cls-3" width="512" height="512"/>
  <g id="Layer_1" data-name="Layer 1">
    <g>
      <path class="cls-2" d="M326.18,242.23v2.09c0,12.85,6.91,24.12,17.24,30.2,5.26,3.1,11.38,4.9,17.89,4.9,4.07,0,7.99-.68,11.63-1.98-1.55,4.75-4.21,9.07-7.74,12.6-1.69,1.66-3.6,3.17-5.65,4.43l-2.27,1.4c-1.12.68-1.8,1.91-1.8,3.2,0,2.05,1.69,3.74,3.74,3.74h2.09c12.85,0,24.12-6.91,30.2-17.24,3.1-5.26,4.9-11.38,4.9-17.89,0-4.07-.68-7.99-1.98-11.63,4.75,1.55,9.07,4.21,12.6,7.74,1.66,1.69,3.17,3.6,4.43,5.65l1.4,2.3c.68,1.12,1.91,1.8,3.2,1.8,2.05,0,3.74-1.69,3.74-3.74v-2.09c0-12.85-6.91-24.12-17.24-30.2-5.26-3.1-11.38-4.9-17.89-4.9-4.07,0-7.99.68-11.63,1.98,1.55-4.75,4.21-9.07,7.74-12.6,1.69-1.66,3.6-3.17,5.65-4.43l2.27-1.44c1.12-.68,1.8-1.91,1.8-3.2,0-2.05-1.69-3.74-3.74-3.74h-2.09c-12.85,0-24.12,6.91-30.2,17.24-1.55,2.63-2.77,5.47-3.64,8.46-.43,1.51-.72,3.02-.94,4.61-.11.79-.18,1.58-.25,2.38s-.11,1.62-.11,2.45c0,4.07.68,7.99,1.98,11.63-4.75-1.55-9.07-4.21-12.6-7.74-1.66-1.69-3.17-3.6-4.43-5.65l-1.4-2.27c-.68-1.12-1.87-1.8-3.2-1.8-2.05,0-3.74,1.69-3.74,3.74h.04ZM378.85,256.02c0,3.24-2.63,5.87-5.87,5.87s-5.87-2.63-5.87-5.87,2.63-5.87,5.87-5.87,5.87,2.63,5.87,5.87Z"/>
      <text class="cls-4" transform="translate(92.18 290.35)"><tspan x="0" y="0">W</tspan></text>
      <path class="cls-1" d="M326.18,242.23v2.09c0,12.85,6.91,24.12,17.24,30.2,5.26,3.1,11.38,4.9,17.89,4.9,4.07,0,7.99-.68,11.63-1.98-1.55,4.75-4.21,9.07-7.74,12.6-1.69,1.66-3.6,3.17-5.65,4.43l-2.27,1.4c-1.12.68-1.8,1.91-1.8,3.2,0,2.05,1.69,3.74,3.74,3.74h2.09c12.85,0,24.12-6.91,30.2-17.24,3.1-5.26,4.9-11.38,4.9-17.89,0-4.07-.68-7.99-1.98-11.63,4.75,1.55,9.07,4.21,12.6,7.74,1.66,1.69,3.17,3.6,4.43,5.65l1.4,2.3c.68,1.12,1.91,1.8,3.2,1.8,2.05,0,3.74-1.69,3.74-3.74v-2.09c0-12.85-6.91-24.12-17.24-30.2-5.26-3.1-11.38-4.9-17.89-4.9-4.07,0-7.99.68-11.63,1.98,1.55-4.75,4.21-9.07,7.74-12.6,1.69-1.66,3.6-3.17,5.65-4.43l2.27-1.44c1.12-.68,1.8-1.91,1.8-3.2,0-2.05-1.69-3.74-3.74-3.74h-2.09c-12.85,0-24.12,6.91-30.2,17.24-1.55,2.63-2.77,5.47-3.64,8.46-.43,1.51-.72,3.02-.94,4.61-.11.79-.18,1.58-.25,2.38s-.11,1.62-.11,2.45c0,4.07.68,7.99,1.98,11.63-4.75-1.55-9.07-4.21-12.6-7.74-1.66-1.69-3.17-3.6-4.43-5.65l-1.4-2.27c-.68-1.12-1.87-1.8-3.2-1.8-2.05,0-3.74,1.69-3.74,3.74h.04ZM378.85,256.02c0,3.24-2.63,5.87-5.87,5.87s-5.87-2.63-5.87-5.87,2.63-5.87,5.87-5.87,5.87,2.63,5.87,5.87Z"/>
      <path class="cls-5" d="M354.52,226.43c0-2.38.29-4.79.86-7.13l.61-2.59c.32-1.26-.07-2.59-1.01-3.53-1.48-1.48-3.85-1.48-5.29,0l-1.48,1.48c-9.11,9.11-12.17,21.92-9.22,33.55,3.53,3.56,7.85,6.23,12.6,7.74-1.3-3.64-1.98-7.56-1.98-11.63,0-6.52,1.8-12.67,4.9-17.89h0ZM343.43,274.52c-2.38,0-4.79-.29-7.13-.86l-2.59-.61c-1.26-.32-2.59.07-3.53,1.01-1.48,1.48-1.48,3.85,0,5.29l1.48,1.48c9.11,9.11,21.92,12.17,33.55,9.22,3.56-3.53,6.23-7.85,7.74-12.6-3.64,1.3-7.56,1.98-11.63,1.98-6.52,0-12.67-1.8-17.89-4.9h0ZM391.52,285.61c0,2.38-.29,4.79-.86,7.13l-.61,2.59c-.32,1.26.07,2.59,1.01,3.53,1.48,1.48,3.85,1.48,5.29,0l1.48-1.48c9.11-9.11,12.17-21.92,9.22-33.55-3.53-3.56-7.85-6.23-12.6-7.74,1.3,3.64,1.98,7.56,1.98,11.63,0,6.52-1.8,12.67-4.9,17.89h0ZM402.61,237.51c2.38,0,4.79.29,7.13.86l2.59.61c1.26.32,2.59-.07,3.53-1.01,1.48-1.48,1.48-3.85,0-5.29l-1.48-1.48c-9.11-9.11-21.92-12.17-33.55-9.22-3.56,3.53-6.23,7.85-7.74,12.6,3.64-1.3,7.56-1.98,11.63-1.98,6.52,0,12.67,1.8,17.89,4.9h0Z"/>
    </g>
  </g>
</svg>