<?xml version="1.0" encoding="UTF-8"?>
<svg id="Layer_1" data-name="Layer 1" xmlns="http://www.w3.org/2000/svg" viewBox="0 0 320 111.65">
  <defs>
    <style>
      .cls-1 {
        fill: #fb5cf6;
        opacity: .4;
      }

      .cls-1, .cls-2, .cls-3, .cls-4 {
        isolation: isolate;
      }

      .cls-3 {
        fill: #e2e8f0;
        font-family: 'Nova Light', Federation, sans-serif;
        font-size: 25.29px;
        font-weight: 100;
      }

      .cls-4 {
        font-family: FederationWide, 'Federation Wide', Federation, sans-serif;
        font-size: 43.36px;
      }

      .cls-4, .cls-5 {
        fill: #38bdf8;
      }
    </style>
  </defs>
  <g class="cls-2">
    <text class="cls-4" transform="translate(10.33 58.93)"><tspan x="0" y="0">Warp</tspan></text>
  </g>
  <g>
    <path class="cls-1" d="M244.12,41.44v.58c0,3.57,1.92,6.7,4.79,8.39,1.46.86,3.16,1.36,4.97,1.36,1.13,0,2.22-.19,3.23-.55-.43,1.32-1.17,2.52-2.15,3.5-.47.46-1,.88-1.57,1.23l-.63.39c-.31.19-.5.53-.5.89,0,.57.47,1.04,1.04,1.04h.58c3.57,0,6.7-1.92,8.39-4.79.86-1.46,1.36-3.16,1.36-4.97,0-1.13-.19-2.22-.55-3.23,1.32.43,2.52,1.17,3.5,2.15.46.47.88,1,1.23,1.57l.39.64c.19.31.53.5.89.5.57,0,1.04-.47,1.04-1.04v-.58c0-3.57-1.92-6.7-4.79-8.39-1.46-.86-3.16-1.36-4.97-1.36-1.13,0-2.22.19-3.23.55.43-1.32,1.17-2.52,2.15-3.5.47-.46,1-.88,1.57-1.23l.63-.4c.31-.19.5-.53.5-.89,0-.57-.47-1.04-1.04-1.04h-.58c-3.57,0-6.7,1.92-8.39,4.79-.43.73-.77,1.52-1.01,2.35-.12.42-.2.84-.26,1.28-.03.22-.05.44-.07.66s-.03.45-.03.68c0,1.13.19,2.22.55,3.23-1.32-.43-2.52-1.17-3.5-2.15-.46-.47-.88-1-1.23-1.57l-.39-.63c-.19-.31-.52-.5-.89-.5-.57,0-1.04.47-1.04,1.04ZM258.75,45.27c0,.9-.73,1.63-1.63,1.63s-1.63-.73-1.63-1.63.73-1.63,1.63-1.63,1.63.73,1.63,1.63Z"/>
    <path class="cls-5" d="M251.99,37.05c0-.66.08-1.33.24-1.98l.17-.72c.09-.35-.02-.72-.28-.98-.41-.41-1.07-.41-1.47,0l-.41.41c-2.53,2.53-3.38,6.09-2.56,9.32.98.99,2.18,1.73,3.5,2.15-.36-1.01-.55-2.1-.55-3.23,0-1.81.5-3.52,1.36-4.97h0ZM248.91,50.41c-.66,0-1.33-.08-1.98-.24l-.72-.17c-.35-.09-.72.02-.98.28-.41.41-.41,1.07,0,1.47l.41.41c2.53,2.53,6.09,3.38,9.32,2.56.99-.98,1.73-2.18,2.15-3.5-1.01.36-2.1.55-3.23.55-1.81,0-3.52-.5-4.97-1.36h0ZM262.27,53.49c0,.66-.08,1.33-.24,1.98l-.17.72c-.09.35.02.72.28.98.41.41,1.07.41,1.47,0l.41-.41c2.53-2.53,3.38-6.09,2.56-9.32-.98-.99-2.18-1.73-3.5-2.15.36,1.01.55,2.1.55,3.23,0,1.81-.5,3.52-1.36,4.97h0ZM265.35,40.13c.66,0,1.33.08,1.98.24l.72.17c.35.09.72-.02.98-.28.41-.41.41-1.07,0-1.47l-.41-.41c-2.53-2.53-6.09-3.38-9.32-2.56-.99.98-1.73,2.18-2.15,3.5,1.01-.36,2.1-.55,3.23-.55,1.81,0,3.52.5,4.97,1.36h0Z"/>
  </g>
  <g class="cls-2">
    <text class="cls-3" transform="translate(207.84 80.79)"><tspan x="0" y="0">Interstellar Dominoes</tspan></text>
  </g>
</svg>